PathFileType	4	(X/Y/Z)	/tmp/tmpjnq7zxqp/Me/MarkerData/jogging04_segment_0.trc
DataRate	CameraRate	NumFrames	NumMarkers	Units	OrigDataRate	OrigDataStartFrame	OrigNumFrames
100.091	100.091	10	39	m	100.091	825	1100
Frame#	Time	C7			CLAV			LANK			LASI			LBHD			LELB			LFHD			LFIN			LFRM			LHEE			LKNE			LPSI			LSHO			LTHI			LTIB			LTOE			LUPA			LWRA			LWRB			RANK			RASI			RBAK			RBHD			RELB			RFHD			RFIN			RFRM			RHEE			RKNE			RPSI			RSHO			RTHI			RTIB			RTOE			RUPA			RWRA			RWRB			STRN			T10		
		X1	Y1	Z1	X2	Y2	Z2	X3	Y3	Z3	X4	Y4	Z4	X5	Y5	Z5	X6	Y6	Z6	X7	Y7	Z7	X8	Y8	Z8	X9	Y9	Z9	X10	Y10	Z10	X11	Y11	Z11	X12	Y12	Z12	X13	Y13	Z13	X14	Y14	Z14	X15	Y15	Z15	X16	Y16	Z16	X17	Y17	Z17	X18	Y18	Z18	X19	Y19	Z19	X20	Y20	Z20	X21	Y21	Z21	X22	Y22	Z22	X23	Y23	Z23	X24	Y24	Z24	X25	Y25	Z25	X26	Y26	Z26	X27	Y27	Z27	X28	Y28	Z28	X29	Y29	Z29	X30	Y30	Z30	X31	Y31	Z31	X32	Y32	Z32	X33	Y33	Z33	X34	Y34	Z34	X35	Y35	Z35	X36	Y36	Z36	X37	Y37	Z37	X38	Y38	Z38	X39	Y39	Z39

826	8.2425	-0.169161	1.40211	-0.0191505	-0.328346	1.30648	-0.0107009	-0.0230785	0.266258	0.124873	-0.205541	0.921859	0.178267	-0.232112	1.53228	0.0566195	-0.134278	1.10857	0.310884	-0.337005	1.6118	0.0407756	-0.372385	0.949961	0.174457	-0.205811	0.984819	0.250835	0.0441593	0.303152	0.0747613	-0.381695	0.442157	0.140967	-0.055716	0.940323	0.0655195	-0.25134	1.39467	0.160064	-0.324209	0.6176	0.179343	-0.154833	0.336151	0.148762	-0.0848342	0.10462	0.0646979	-0.219665	1.25514	0.270485	-0.27667	0.992644	0.171214	-0.278429	0.937666	0.218077	-0.043958	0.0971763	-0.0758368	-0.170587	0.933305	-0.141098	-0.103581	1.26108	-0.121914	-0.232077	1.52405	-0.0916108	-0.264333	1.03242	-0.281933	-0.335357	1.59462	-0.0885252	-0.512224	1.1016	-0.0727546	-0.327262	1.00711	-0.227558	0.0319638	0.0643217	-0.0126672	-0.254523	0.439429	-0.148082	-0.0475673	0.93607	0.00211686	-0.243826	1.35702	-0.193666	-0.202518	0.769474	-0.177874	-0.182475	0.326487	-0.152974	-0.205723	0.0586451	-0.0281906	-0.258615	1.12301	-0.26826	-0.400354	1.07947	-0.0986938	-0.449069	1.02839	-0.116364	-0.340192	1.14	0.005596	-0.0940042	1.17274	0.0160673
827	8.25249	-0.167038	1.406	-0.0196645	-0.327645	1.31204	-0.00733131	-0.0405472	0.258175	0.125647	-0.204931	0.926943	0.177515	-0.230967	1.53763	0.0580096	-0.119034	1.11936	0.311522	-0.336335	1.61668	0.0423059	-0.358573	0.955846	0.183246	-0.190008	0.994038	0.254484	0.0297652	0.291164	0.0765258	-0.390612	0.451881	0.139784	-0.0544024	0.945525	0.0659889	-0.245035	1.39993	0.160877	-0.328691	0.626117	0.178728	-0.169015	0.334689	0.149163	-0.111893	0.101865	0.0640266	-0.207628	1.2645	0.272047	-0.2633	1.00006	0.176631	-0.262917	0.945568	0.224342	-0.024683	0.0982231	-0.0756456	-0.170942	0.936083	-0.141643	-0.107353	1.26488	-0.125686	-0.231312	1.52943	-0.0903128	-0.27661	1.04023	-0.277892	-0.334891	1.59951	-0.0869851	-0.515816	1.12284	-0.0634284	-0.339454	1.0183	-0.221659	0.0515039	0.0650976	-0.0124725	-0.23847	0.439775	-0.145345	-0.0471637	0.941364	0.00193899	-0.246501	1.36402	-0.192258	-0.198971	0.771776	-0.177273	-0.164285	0.327856	-0.150947	-0.185773	0.0587434	-0.0282897	-0.267876	1.13034	-0.265509	-0.405922	1.09547	-0.0920724	-0.457475	1.04643	-0.108123	-0.340209	1.14616	0.00855856	-0.0927427	1.17776	0.0125672
828	8.26248	-0.164246	1.41027	-0.0208085	-0.326912	1.31871	-0.00401503	-0.0582572	0.249287	0.126197	-0.204956	0.933008	0.176566	-0.229893	1.54396	0.0596785	-0.104326	1.13105	0.311791	-0.335623	1.62252	0.0441449	-0.345314	0.96301	0.19173	-0.17488	1.00438	0.257612	0.0145241	0.277993	0.0775531	-0.398142	0.461845	0.139053	-0.0543025	0.951354	0.0655095	-0.23847	1.40597	0.161654	-0.332764	0.635251	0.178333	-0.182863	0.332831	0.149721	-0.13965	0.0988092	0.0640583	-0.196052	1.27463	0.273198	-0.250927	1.00878	0.181867	-0.247919	0.954506	0.229956	-0.00567372	0.099642	-0.0754832	-0.171813	0.939509	-0.14213	-0.110834	1.26993	-0.128633	-0.230441	1.53568	-0.0886955	-0.287669	1.0494	-0.274083	-0.334375	1.60529	-0.0851213	-0.518095	1.14351	-0.0546021	-0.3501	1.03036	-0.215895	0.0708787	0.0663007	-0.0121448	-0.221712	0.441168	-0.141727	-0.0478426	0.948065	0.0017165	-0.249529	1.3722	-0.190345	-0.196364	0.774586	-0.176375	-0.145522	0.330571	-0.14832	-0.1657	0.0587155	-0.0280451	-0.276782	1.13894	-0.262602	-0.41025	1.11169	-0.0857197	-0.464047	1.06443	-0.0999718	-0.340896	1.15361	0.0121643	-0.091875	1.18433	0.00885066
829	8.27247	-0.16187	1.41537	-0.0218573	-0.326282	1.32637	-0.000576263	-0.0763218	0.239748	0.126546	-0.205226	0.940044	0.175444	-0.228805	1.55103	0.0616443	-0.0901568	1.1434	0.311477	-0.334857	1.62915	0.0462882	-0.332698	0.971204	0.199885	-0.160488	1.0155	0.260148	-0.00169503	0.263606	0.0778499	-0.404153	0.471859	0.138777	-0.054959	0.957898	0.0643425	-0.232208	1.41288	0.162469	-0.336312	0.644806	0.178127	-0.196375	0.330626	0.150273	-0.168087	0.0956364	0.0648769	-0.185027	1.28524	0.27398	-0.239614	1.01839	0.186769	-0.233752	0.964353	0.234931	0.0129226	0.101714	-0.0755198	-0.17317	0.943533	-0.142542	-0.113909	1.27608	-0.130516	-0.229577	1.54264	-0.0867381	-0.297735	1.05951	-0.270562	-0.333798	1.61181	-0.0829745	-0.519341	1.16321	-0.0462355	-0.359295	1.04289	-0.210318	0.0901908	0.0689307	-0.0121423	-0.204492	0.443705	-0.137368	-0.0484937	0.955471	0.00115666	-0.252851	1.38124	-0.187995	-0.194254	0.77773	-0.175256	-0.126723	0.334378	-0.145357	-0.145452	0.0584926	-0.0275768	-0.285378	1.14859	-0.259525	-0.413412	1.12782	-0.0796337	-0.468926	1.08186	-0.091775	-0.342144	1.16197	0.0164646	-0.0913363	1.19131	0.00515461
830	8.28246	-0.160841	1.42161	-0.0222264	-0.325748	1.33481	0.00322293	-0.0948126	0.229648	0.126712	-0.205599	0.948021	0.174428	-0.227676	1.55862	0.0639276	-0.0765906	1.15615	0.310674	-0.334015	1.63637	0.0486792	-0.320743	0.980263	0.207663	-0.146921	1.02707	0.262135	-0.0189279	0.248115	0.0775133	-0.408627	0.481629	0.138999	-0.0558558	0.965342	0.0632364	-0.226344	1.42037	0.163251	-0.339013	0.654508	0.177941	-0.209488	0.327913	0.150704	-0.197293	0.0926581	0.0660582	-0.174528	1.29628	0.274933	-0.228896	1.02887	0.191355	-0.220481	0.974932	0.23937	0.0308135	0.104755	-0.075787	-0.174961	0.948101	-0.14286	-0.116752	1.28315	-0.131916	-0.228735	1.5501	-0.0844689	-0.307009	1.07035	-0.267335	-0.333179	1.61891	-0.0805715	-0.519768	1.18161	-0.0382393	-0.367288	1.05559	-0.205002	0.10922	0.0735013	-0.0124742	-0.187395	0.44752	-0.132384	-0.0492466	0.963189	0.000274578	-0.256356	1.39091	-0.185271	-0.192208	0.781305	-0.174013	-0.108157	0.339265	-0.142298	-0.125301	0.0581885	-0.027304	-0.29368	1.15906	-0.256372	-0.415592	1.14349	-0.0737515	-0.472309	1.0983	-0.0835237	-0.3438	1.17106	0.0212314	-0.0911045	1.19805	0.00163029
831	8.29245	-0.161091	1.42887	-0.0218515	-0.325274	1.34374	0.0074088	-0.113661	0.219006	0.126719	-0.206211	0.956619	0.173347	-0.226529	1.56652	0.0664714	-0.0636973	1.16902	0.309444	-0.333078	1.644	0.0513043	-0.309506	0.990058	0.215023	-0.134172	1.03889	0.263659	-0.0371391	0.23172	0.0767833	-0.41152	0.490901	0.139738	-0.0571236	0.973296	0.0623411	-0.220815	1.42813	0.163962	-0.340702	0.664031	0.177776	-0.222234	0.324714	0.151102	-0.226878	0.0900387	0.0673638	-0.164562	1.30745	0.275734	-0.218684	1.03926	0.195626	-0.208118	0.986026	0.243327	0.0478744	0.109025	-0.0758785	-0.177061	0.953154	-0.143064	-0.119668	1.29115	-0.133509	-0.227903	1.55789	-0.0819347	-0.315557	1.08167	-0.264316	-0.332513	1.62643	-0.0779211	-0.51951	1.19849	-0.030447	-0.374309	1.06823	-0.200029	0.127597	0.0798478	-0.0126405	-0.170975	0.452661	-0.127187	-0.0503943	0.970931	-0.00080497	-0.259925	1.40101	-0.182242	-0.190049	0.785417	-0.172675	-0.090132	0.345341	-0.139423	-0.105192	0.0580419	-0.0268235	-0.301683	1.17016	-0.253271	-0.416952	1.15838	-0.0680468	-0.474434	1.11353	-0.0752439	-0.345665	1.18054	0.0264374	-0.0911863	1.20448	-0.00169007
832	8.30245	-0.161597	1.4367	-0.0210367	-0.324856	1.35285	0.0118079	-0.132836	0.207896	0.126696	-0.206776	0.965926	0.172274	-0.225449	1.57454	0.0691778	-0.0515251	1.18172	0.307691	-0.332052	1.65184	0.0542005	-0.29916	1.00038	0.221923	-0.122305	1.05084	0.264793	-0.0561508	0.214661	0.075903	-0.412791	0.49943	0.140885	-0.0583889	0.98153	0.0614293	-0.215713	1.43592	0.164627	-0.341478	0.673046	0.177785	-0.234702	0.320992	0.151585	-0.256309	0.088056	0.0690004	-0.155396	1.3185	0.27618	-0.209162	1.0504	0.199467	-0.196748	0.997483	0.246783	0.064079	0.114435	-0.0759317	-0.179304	0.958584	-0.143162	-0.12285	1.29991	-0.135488	-0.22706	1.56581	-0.0791843	-0.323578	1.09333	-0.261616	-0.331784	1.63416	-0.0750238	-0.518624	1.21371	-0.0226378	-0.380492	1.08064	-0.195415	0.14492	0.0877288	-0.0127898	-0.15552	0.459058	-0.122526	-0.0521456	0.978566	-0.00198079	-0.263496	1.41133	-0.178875	-0.187792	0.790009	-0.171204	-0.0730158	0.352697	-0.136907	-0.0850329	0.0579533	-0.0261218	-0.309373	1.18165	-0.250236	-0.417675	1.17222	-0.0624591	-0.475634	1.12738	-0.0671073	-0.347421	1.19023	0.0320158	-0.0916725	1.21084	-0.00485102
833	8.31244	-0.161991	1.44449	-0.0200497	-0.324514	1.36197	0.0161964	-0.15233	0.196498	0.126754	-0.207859	0.975234	0.171301	-0.224471	1.58251	0.072027	-0.0400617	1.19412	0.305596	-0.330962	1.65969	0.0573595	-0.289742	1.01106	0.228266	-0.111514	1.06287	0.265432	-0.0758635	0.197226	0.0751446	-0.41251	0.506949	0.142292	-0.0601171	0.98979	0.0603702	-0.211307	1.44353	0.165293	-0.341656	0.681287	0.178272	-0.246346	0.316804	0.152415	-0.285495	0.0869818	0.0705947	-0.147106	1.32912	0.275992	-0.200625	1.06221	0.202885	-0.186391	1.00918	0.249678	0.0792935	0.120802	-0.0761174	-0.181853	0.964171	-0.143201	-0.12633	1.30919	-0.137785	-0.22622	1.57374	-0.0762692	-0.331088	1.10517	-0.259194	-0.330993	1.64194	-0.0718808	-0.517262	1.22716	-0.014676	-0.385778	1.09269	-0.191116	0.161166	0.0969702	-0.0129162	-0.140932	0.466488	-0.119054	-0.0545143	0.986244	-0.00314618	-0.267038	1.4217	-0.175185	-0.185676	0.794994	-0.169742	-0.0568042	0.361124	-0.135019	-0.0648462	0.0578686	-0.0256043	-0.316693	1.19335	-0.247229	-0.417925	1.1848	-0.05707	-0.476157	1.13981	-0.0592785	-0.348384	1.20008	0.0376525	-0.0925851	1.21749	-0.00788924
834	8.32243	-0.161881	1.45216	-0.0191233	-0.324172	1.37101	0.0203825	-0.172133	0.185025	0.126996	-0.209367	0.984193	0.170402	-0.223348	1.59019	0.0750171	-0.0293092	1.20619	0.303298	-0.329808	1.6673	0.0606701	-0.281367	1.02192	0.234048	-0.101824	1.07479	0.265555	-0.0961484	0.179851	0.074714	-0.410876	0.513223	0.143887	-0.0623056	0.998148	0.0593899	-0.207774	1.45094	0.166135	-0.341028	0.688528	0.178919	-0.257196	0.312174	0.153498	-0.313992	0.0866383	0.0718353	-0.139788	1.33909	0.275182	-0.193321	1.07411	0.205942	-0.177115	1.02093	0.251968	0.0934695	0.127771	-0.0765418	-0.185395	0.969763	-0.143161	-0.130252	1.31865	-0.140131	-0.225369	1.58145	-0.0732077	-0.337925	1.11697	-0.256915	-0.330148	1.64956	-0.0685325	-0.515492	1.23876	-0.00641492	-0.390366	1.10426	-0.187206	0.176207	0.107234	-0.013121	-0.127069	0.474523	-0.116747	-0.0573359	0.994231	-0.00413753	-0.270482	1.43188	-0.171184	-0.183935	0.800319	-0.168575	-0.0414574	0.370395	-0.133861	-0.0449269	0.0579954	-0.0256873	-0.323516	1.20509	-0.244268	-0.417863	1.19601	-0.0517999	-0.475989	1.15088	-0.0518541	-0.348605	1.20986	0.0429051	-0.0939057	1.22468	-0.0108465
835	8.33242	-0.161522	1.45948	-0.0182603	-0.323674	1.37983	0.0242856	-0.192172	0.173727	0.127378	-0.211005	0.992724	0.169762	-0.222073	1.59741	0.0781324	-0.019384	1.21775	0.300651	-0.328601	1.67441	0.064065	-0.2742	1.03279	0.239236	-0.0932461	1.08635	0.26516	-0.116877	0.162998	0.074677	-0.408061	0.51808	0.145658	-0.0648161	1.00666	0.058676	-0.205083	1.45808	0.167271	-0.339613	0.694647	0.179634	-0.267242	0.307241	0.154613	-0.341539	0.0871403	0.0727245	-0.133476	1.34838	0.274213	-0.186995	1.08571	0.208589	-0.169041	1.03248	0.253655	0.106446	0.135085	-0.0772913	-0.18869	0.975778	-0.142758	-0.134561	1.32802	-0.142287	-0.224532	1.58885	-0.0700236	-0.344149	1.12856	-0.254835	-0.329269	1.65683	-0.0650559	-0.51332	1.24845	0.00223101	-0.394425	1.11519	-0.183734	0.189887	0.118466	-0.0134472	-0.113943	0.482872	-0.115199	-0.0603594	1.00242	-0.00471369	-0.27368	1.44168	-0.166957	-0.182884	0.805774	-0.167719	-0.0269775	0.380293	-0.133314	-0.0250002	0.057743	-0.026037	-0.329683	1.21668	-0.241397	-0.417546	1.2057	-0.046654	-0.475446	1.16055	-0.0449729	-0.348455	1.21914	0.0472364	-0.0955245	1.23267	-0.0138578
